<?xml version="1.0" encoding="utf-8"?>
<svg viewBox="0 0 331.51 73.92" xmlns="http://www.w3.org/2000/svg">
  <defs>
    <style>.cls-1{fill:url(#linear-gradient);}.cls-2{fill:url(#linear-gradient-2);}.cls-3{fill:#3e4744;}</style>
    <linearGradient id="linear-gradient" x1="10.4" y1="64.38" x2="44.26" y2="5.72" gradientUnits="userSpaceOnUse">
      <stop offset="0" stop-color="#90f17a"/>
      <stop offset="1" stop-color="#18cbc0"/>
    </linearGradient>
    <linearGradient id="linear-gradient-2" x1="27.91" y1="52.99" x2="28.04" y2="52.77" gradientUnits="userSpaceOnUse">
      <stop offset="0" stop-color="#90f17a"/>
      <stop offset="1" stop-color="#18cbc0"/>
    </linearGradient>
  </defs>
  <title>common-logo-full</title>
  <g id="Layer_2" data-name="Layer 2">
    <g id="Layer_1-2" data-name="Layer 1">
      <path class="cls-1" d="M27.86,0C10.91,0,0,16.55,0,37s24.56,37,27.86,37S55.73,57.38,55.73,37,44.82,0,27.86,0ZM20.71,50.38c-.8.8-5.44,1-11.17-4.74S4,35.27,4.8,34.47s5.44-1,11.17,4.74S21.51,49.57,20.71,50.38Zm9.11,5.83H26.11c-.78,0-1.72-.74-1.6-1.6C25.93,44,29.26,26.23,18.62,19.21c-1.72-1.13-.11-3.91,1.62-2.77a18.87,18.87,0,0,1,7.73,11,18.87,18.87,0,0,1,7.73-11c1.73-1.14,3.33,1.64,1.62,2.77C26.68,26.23,30,44,31.43,54.6,31.54,55.46,30.61,56.2,29.82,56.2ZM35,50.38c-.8-.8-1-5.44,4.74-11.17s10.37-5.54,11.17-4.74,1,5.44-4.74,11.17S35.82,51.18,35,50.38Z"/>
      <path class="cls-2" d="M28,53l0-.27,0,.27Z"/>
      <path class="cls-3" d="M75.07,42.8a4,4,0,0,0,1.38,3.25,4.49,4.49,0,0,0,2.93,1.16,5.11,5.11,0,0,0,2.91-.91,4.34,4.34,0,0,1,2.19-.91q1.48,0,3.6,2.61a4.33,4.33,0,0,1,1.13,2.56q0,1.87-2.71,3.5a11.71,11.71,0,0,1-6.9,2,14.18,14.18,0,0,1-8.82-3.3,11.73,11.73,0,0,1-3.3-4.21,13.12,13.12,0,0,1-1.28-5.82,12.81,12.81,0,0,1,1.28-5.77,11.84,11.84,0,0,1,3.3-4.16,13.78,13.78,0,0,1,8.72-3.25,13,13,0,0,1,3.65.52,12.24,12.24,0,0,1,2.61,1l.79.49,1.38.94a2.82,2.82,0,0,1,1.28,2.24,5.32,5.32,0,0,1-1,2.83q-1.77,2.71-3.4,2.71a5.71,5.71,0,0,1-2.66-1.08,3.56,3.56,0,0,0-2.54-.84,4.74,4.74,0,0,0-3.08,1.18A4,4,0,0,0,75.07,42.8Z" style="fill: rgb(255, 255, 255);"/>
      <path class="cls-3" d="M106.51,29.91a10.46,10.46,0,0,1,8.21,3.75A13.44,13.44,0,0,1,118,42.83V51.5a14.31,14.31,0,0,1-.07,1.7,4,4,0,0,1-.47,1.31q-.64,1.28-3.8,1.28t-3.75-1.28a3.92,3.92,0,0,1-.47-1.33,15.58,15.58,0,0,1-.07-1.77V42.78a4.27,4.27,0,0,0-1.13-3.15,3.91,3.91,0,0,0-2.88-1.13,4.8,4.8,0,0,0-3.08,1.06,3.78,3.78,0,0,0-1.53,2.39V51.5a14.31,14.31,0,0,1-.07,1.7,4,4,0,0,1-.47,1.31q-.64,1.28-3.8,1.28t-3.8-1.33a4.6,4.6,0,0,1-.42-1.28,14.21,14.21,0,0,1-.07-1.73V22a14.31,14.31,0,0,1,.07-1.7A4,4,0,0,1,92.61,19q.69-1.33,3.84-1.33T100.2,19a4,4,0,0,1,.47,1.31,14.32,14.32,0,0,1,.07,1.7V32.92A7.29,7.29,0,0,1,106.51,29.91Z" style="fill: rgb(255, 255, 255);"/>
      <path class="cls-3" d="M138.8,32.58q.3-2.76,3.89-2.76a10.2,10.2,0,0,1,2.86.3,2.07,2.07,0,0,1,1.31,1,4.24,4.24,0,0,1,.44,1.31,14.32,14.32,0,0,1,.07,1.7V51.4a14.31,14.31,0,0,1-.07,1.7,4.58,4.58,0,0,1-.42,1.31q-.69,1.28-3.38,1.28a6.65,6.65,0,0,1-3.6-.67,2.66,2.66,0,0,1-1.06-1.95q-1.82,2.61-6.09,2.61t-7.91-3.89a13,13,0,0,1,0-18.06q3.67-3.87,8.06-3.87a7.68,7.68,0,0,1,3.06.59,6.8,6.8,0,0,1,1.92,1.11A6.91,6.91,0,0,1,138.8,32.58Zm-9,10.25a4.09,4.09,0,0,0,1.28,2.93,4.19,4.19,0,0,0,3.1,1.31,3.92,3.92,0,0,0,3-1.33,4.27,4.27,0,0,0,1.21-2.93,4.56,4.56,0,0,0-1.16-3,3.85,3.85,0,0,0-3.11-1.38A4,4,0,0,0,131,39.82,4.47,4.47,0,0,0,129.83,42.83Z" style="fill: rgb(255, 255, 255);"/>
      <path class="cls-3" d="M169,30.11a3.34,3.34,0,0,1,1.55,1,3.48,3.48,0,0,1,.62,2.29,7.8,7.8,0,0,1-.94,3.45,2.93,2.93,0,0,1-2.71,1.87,3.84,3.84,0,0,1-1.7-.39,5,5,0,0,0-2.14-.39,3.89,3.89,0,0,0-2.49.94A2.82,2.82,0,0,0,160,41.15V51.5a14.37,14.37,0,0,1-.07,1.7,4,4,0,0,1-.47,1.31q-.74,1.28-3.84,1.28a5.43,5.43,0,0,1-3.4-.84,3,3,0,0,1-.89-2.12V34.1a14.31,14.31,0,0,1,.07-1.7,4,4,0,0,1,.42-1.26q.69-1.33,3.84-1.33,3,0,3.7,1.13a2.84,2.84,0,0,1,.54,1.63,8.21,8.21,0,0,1,.71-.84,9.14,9.14,0,0,1,2-1.33,5.76,5.76,0,0,1,2.69-.84,13,13,0,0,1,1.95.12A11.9,11.9,0,0,1,169,30.11Z" style="fill: rgb(255, 255, 255);"/>
      <path class="cls-3" d="M181.95,25a2.09,2.09,0,0,1-1.31,1,10.62,10.62,0,0,1-5,0,2.06,2.06,0,0,1-1.31-1,4.22,4.22,0,0,1-.44-1.31,14.24,14.24,0,0,1-.07-1.7,14.26,14.26,0,0,1,.07-1.7,4,4,0,0,1,.42-1.26q.69-1.33,3.84-1.33T181.92,19a4,4,0,0,1,.47,1.31,14.39,14.39,0,0,1,.07,1.7,14.36,14.36,0,0,1-.07,1.7A4,4,0,0,1,181.95,25Zm-8.11,9.14a14.26,14.26,0,0,1,.07-1.7,4.56,4.56,0,0,1,.42-1.31q.69-1.28,3.84-1.28a5.21,5.21,0,0,1,3.35.84,2.72,2.72,0,0,1,.89,2.12q0,.49,0,1.43V51.5a14.37,14.37,0,0,1-.07,1.7,4,4,0,0,1-.47,1.31q-.64,1.28-3.8,1.28t-3.8-1.33a4.59,4.59,0,0,1-.42-1.28,14.16,14.16,0,0,1-.07-1.73Z" style="fill: rgb(255, 255, 255);"/>
      <path class="cls-3" d="M186.6,53.47a2.05,2.05,0,0,1-.94-1.87q0-1.28,1.87-3.89a1.93,1.93,0,0,1,1.75-.84,7.19,7.19,0,0,1,3.28,1.21,7.59,7.59,0,0,0,3.75,1.21q3,0,3-1.18,0-.94-3.3-1.38a16.12,16.12,0,0,1-6.16-2.32,6.58,6.58,0,0,1-2.37-2.78,10.09,10.09,0,0,1-.94-4.51q0-7.79,10.7-7.79a17.37,17.37,0,0,1,7.2,1.68q1.73.79,1.73,2a5.82,5.82,0,0,1-1.08,2.91Q204,37.6,202.87,37.6a6.67,6.67,0,0,1-2.19-.74,8.19,8.19,0,0,0-3.48-.74q-2.91,0-2.91,1.08,0,1.48,3.35,1.92A18.37,18.37,0,0,1,204,41a5.59,5.59,0,0,1,2.39,2.39,8.57,8.57,0,0,1,1,4.26,9.15,9.15,0,0,1-1,4.36,6.24,6.24,0,0,1-2.69,2.69,18.11,18.11,0,0,1-7.91,1.53A16.92,16.92,0,0,1,186.6,53.47Z" style="fill: rgb(255, 255, 255);"/>
      <path class="cls-3" d="M219,33.27q2.32-3.5,5.57-3.5A8.08,8.08,0,0,1,232,34.05a16.68,16.68,0,0,1,1.31-1.55,10.75,10.75,0,0,1,2.44-1.77,6.85,6.85,0,0,1,3.45-1,8.44,8.44,0,0,1,6.6,3q2.66,3,2.66,10v8.63a14.25,14.25,0,0,1-.07,1.7,3.94,3.94,0,0,1-.47,1.31q-.64,1.33-3.8,1.33t-3.8-1.38A4.57,4.57,0,0,1,240,53.1a14.37,14.37,0,0,1-.07-1.7V42.78q0-4.29-3.06-4.29a2.42,2.42,0,0,0-2.34,1.13,6.8,6.8,0,0,0-.62,3.2v8.63a14.28,14.28,0,0,1-.07,1.73,4,4,0,0,1-.47,1.28q-.69,1.33-3.84,1.33t-3.8-1.38a4.55,4.55,0,0,1-.42-1.31,14.22,14.22,0,0,1-.07-1.7V42.78q0-4.29-3.06-4.29t-3,4.29V51.5a14.25,14.25,0,0,1-.07,1.7,4,4,0,0,1-.47,1.31q-.74,1.28-3.84,1.28T211,54.46a4.59,4.59,0,0,1-.42-1.28,14.16,14.16,0,0,1-.07-1.73V34.1a14.26,14.26,0,0,1,.07-1.7,3.49,3.49,0,0,1,.47-1.26q.74-1.33,3.5-1.33t3.6.89A3.6,3.6,0,0,1,219,33.27Z" style="fill: rgb(255, 255, 255);"/>
      <path class="cls-3" d="M269.31,32.58q.3-2.76,3.89-2.76a10.2,10.2,0,0,1,2.86.3,2.07,2.07,0,0,1,1.31,1,4.24,4.24,0,0,1,.44,1.31,14.38,14.38,0,0,1,.07,1.7V51.4a14.37,14.37,0,0,1-.07,1.7,4.59,4.59,0,0,1-.42,1.31q-.69,1.28-3.38,1.28a6.65,6.65,0,0,1-3.6-.67,2.66,2.66,0,0,1-1.06-1.95q-1.82,2.61-6.09,2.61t-7.91-3.89a13,13,0,0,1,0-18.06q3.67-3.87,8.06-3.87a7.69,7.69,0,0,1,3.06.59,6.8,6.8,0,0,1,1.92,1.11A6.89,6.89,0,0,1,269.31,32.58Zm-9,10.25a4.09,4.09,0,0,0,1.28,2.93,4.19,4.19,0,0,0,3.11,1.31,3.92,3.92,0,0,0,3-1.33A4.27,4.27,0,0,0,269,42.8a4.55,4.55,0,0,0-1.16-3,3.85,3.85,0,0,0-3.11-1.38,4,4,0,0,0-3.15,1.38A4.47,4.47,0,0,0,260.34,42.83Z" style="fill: rgb(255, 255, 255);"/>
      <path class="cls-3" d="M289.47,47.66q.84.84.84,3.45v.2a15,15,0,0,1-.07,1.75,3.93,3.93,0,0,1-.52,1.36Q289,55.84,286,55.84t-3.94-.94q-1-.94-1-3.55v-.2a15.06,15.06,0,0,1,.07-1.73,3.93,3.93,0,0,1,.47-1.33q.74-1.48,3.72-1.48T289.47,47.66Z" style="fill: rgb(255, 255, 255);"/>
      <path class="cls-3" d="M310.37,32.58q.3-2.76,3.89-2.76a10.2,10.2,0,0,1,2.86.3,2.07,2.07,0,0,1,1.31,1,4.24,4.24,0,0,1,.44,1.31,14.38,14.38,0,0,1,.07,1.7V51.4a14.37,14.37,0,0,1-.07,1.7,4.59,4.59,0,0,1-.42,1.31q-.69,1.28-3.38,1.28a6.65,6.65,0,0,1-3.6-.67,2.66,2.66,0,0,1-1.06-1.95q-1.82,2.61-6.09,2.61t-7.91-3.89a13,13,0,0,1,0-18.06q3.67-3.87,8.06-3.87a7.69,7.69,0,0,1,3.06.59,6.8,6.8,0,0,1,1.92,1.11A6.89,6.89,0,0,1,310.37,32.58Zm-9,10.25a4.09,4.09,0,0,0,1.28,2.93,4.19,4.19,0,0,0,3.11,1.31,3.92,3.92,0,0,0,3-1.33A4.27,4.27,0,0,0,310,42.8a4.55,4.55,0,0,0-1.16-3,3.85,3.85,0,0,0-3.11-1.38,4,4,0,0,0-3.15,1.38A4.47,4.47,0,0,0,301.4,42.83Z" style="fill: rgb(255, 255, 255);"/>
      <path class="cls-3" d="M331,25a2.09,2.09,0,0,1-1.31,1,10.62,10.62,0,0,1-5,0,2.06,2.06,0,0,1-1.31-1,4.22,4.22,0,0,1-.44-1.31,14.24,14.24,0,0,1-.07-1.7,14.26,14.26,0,0,1,.07-1.7,4,4,0,0,1,.42-1.26q.69-1.33,3.84-1.33T331,19a4,4,0,0,1,.47,1.31,14.39,14.39,0,0,1,.07,1.7,14.36,14.36,0,0,1-.07,1.7A4,4,0,0,1,331,25Zm-8.11,9.14a14.26,14.26,0,0,1,.07-1.7,4.56,4.56,0,0,1,.42-1.31q.69-1.28,3.84-1.28a5.21,5.21,0,0,1,3.35.84,2.72,2.72,0,0,1,.89,2.12q0,.49,0,1.43V51.5a14.37,14.37,0,0,1-.07,1.7,4,4,0,0,1-.47,1.31q-.64,1.28-3.8,1.28t-3.8-1.33a4.59,4.59,0,0,1-.42-1.28,14.17,14.17,0,0,1-.07-1.73Z" style="fill: rgb(255, 255, 255);"/>
    </g>
  </g>
</svg>